<?xml version="1.0" standalone="no"?>
<!DOCTYPE svg PUBLIC "-//W3C//DTD SVG 20010904//EN"
 "http://www.w3.org/TR/2001/REC-SVG-20010904/DTD/svg10.dtd">
<svg version="1.0" xmlns="http://www.w3.org/2000/svg"
 width="405.000000pt" height="405.000000pt" viewBox="0 0 405.000000 405.000000"
 preserveAspectRatio="xMidYMid meet">
<metadata>
Created by potrace 1.11, written by Peter Selinger 2001-2013
</metadata>
<g transform="translate(0.000000,405.000000) scale(0.100000,-0.100000)"
fill="#000000" stroke="none">
<path d="M965 2434 c-165 -58 -365 -128 -445 -156 -284 -98 -283 -97 -258
-131 12 -16 16 -16 61 -1 26 9 51 13 55 9 4 -4 9 -95 10 -203 2 -108 5 -199 8
-201 3 -3 2954 -5 3002 -2 9 1 12 30 12 111 0 61 4 110 8 110 5 0 51 -9 102
-20 51 -11 95 -20 97 -20 2 0 3 11 3 25 0 14 -3 25 -6 25 -4 0 -96 20 -205 46
-109 25 -206 47 -216 49 -10 2 -200 48 -423 103 -363 90 -854 209 -1015 247
-33 8 -154 37 -268 65 -115 27 -211 50 -215 49 -4 0 -142 -47 -307 -105z"/>
<path d="M3460 1900 c-41 -41 -12 -120 44 -120 39 0 57 11 71 44 30 71 -60
131 -115 76z m90 -10 c26 -26 25 -55 0 -80 -38 -38 -104 -4 -95 50 9 49 60 65
95 30z"/>
<path d="M3476 1863 c1 -15 3 -34 3 -42 1 -11 5 -10 15 5 14 18 15 18 21 2 12
-30 22 -20 21 20 -2 34 -5 37 -32 40 -27 3 -30 0 -28 -25z m44 2 c0 -9 -6 -12
-15 -9 -8 4 -12 10 -9 15 8 14 24 10 24 -6z"/>
<path d="M1986 1723 c-14 -14 -5 -43 13 -43 14 0 19 6 18 20 -1 20 -20 34 -31
23z"/>
<path d="M444 1701 c-68 -42 -72 -167 -7 -215 31 -23 113 -27 136 -8 8 7 17
24 19 37 5 24 -1 25 -30 1 -53 -40 -132 7 -126 74 1 8 2 23 3 33 3 49 82 74
129 41 21 -14 22 -14 22 11 0 45 -88 61 -146 26z"/>
<path d="M2803 1710 c-20 -5 -21 -11 -19 -120 1 -95 4 -115 16 -115 12 0 15
17 14 92 0 50 2 90 5 88 3 -2 26 -42 51 -89 40 -77 70 -109 87 -92 5 4 7 155
4 219 -1 9 -8 17 -16 17 -12 0 -15 -18 -15 -97 l-1 -98 -23 45 c-83 160 -81
156 -103 150z"/>
<path d="M3085 1710 c-89 -34 -96 -197 -9 -230 38 -15 87 -12 112 6 32 22 18
35 -21 20 -39 -16 -92 -4 -107 24 -27 51 -4 141 40 155 23 7 68 -1 85 -15 9
-8 14 -7 18 5 4 8 -1 19 -11 24 -25 13 -84 19 -107 11z"/>
<path d="M1206 1701 c-1 -3 -2 -13 -1 -21 0 -8 -6 -21 -15 -27 -13 -12 -13
-14 0 -25 10 -9 15 -33 16 -70 1 -68 15 -88 60 -88 26 0 34 4 34 19 0 14 -6
17 -25 13 -14 -2 -26 0 -26 4 -7 46 -6 114 2 115 5 1 18 2 29 3 11 0 20 4 20
9 0 4 0 11 0 17 0 5 -13 8 -30 6 -16 -2 -29 -1 -28 3 3 27 -5 48 -17 48 -9 0
-17 -3 -19 -6z"/>
<path d="M1856 1703 c-3 -4 -6 -17 -6 -30 0 -13 -4 -22 -8 -19 -4 2 -9 -4 -9
-15 -1 -11 2 -17 8 -14 5 4 9 -2 9 -12 4 -135 7 -141 66 -141 23 0 34 5 34 14
0 8 -10 14 -25 14 -32 0 -41 18 -37 80 3 42 7 50 20 46 21 -7 47 8 38 22 -3 5
-19 8 -34 7 -25 -2 -28 1 -24 20 4 21 -19 41 -32 28z"/>
<path d="M2686 1607 c2 -139 2 -137 19 -137 16 0 16 5 16 145 0 36 0 72 0 80
-1 8 -9 15 -18 15 -16 0 -18 -11 -17 -103z"/>
<path d="M652 1645 c-48 -34 -44 -144 7 -169 84 -41 165 51 119 137 -25 48
-82 62 -126 32z m93 -54 c8 -26 -2 -73 -17 -83 -37 -23 -68 4 -68 61 0 57 68
75 85 22z"/>
<path d="M829 1635 c-5 -164 -5 -165 18 -165 20 0 22 5 25 71 3 64 6 73 25 80
38 14 52 -12 50 -86 -2 -61 -1 -65 20 -65 20 0 22 4 20 74 -3 99 -17 116 -98
113 -52 -1 -59 -4 -60 -22z"/>
<path d="M1048 1648 c-23 -18 -30 -51 -16 -71 7 -9 31 -23 53 -30 22 -8 40
-20 40 -28 0 -18 -57 -24 -85 -9 -17 9 -20 8 -20 -10 0 -25 32 -39 80 -34 35
3 70 33 70 60 0 19 -32 45 -71 58 -18 6 -34 16 -36 22 -5 16 33 24 68 14 25
-7 29 -6 27 8 -2 9 -7 20 -13 24 -16 12 -80 9 -97 -4z"/>
<path d="M1330 1565 c0 -88 1 -95 20 -95 18 0 20 7 20 64 0 67 15 94 50 88 23
-4 35 27 14 35 -9 3 -26 1 -37 -6 -11 -7 -22 -9 -26 -4 -3 4 -14 9 -23 11 -16
3 -18 -7 -18 -93z"/>
<path d="M1466 1651 c-2 -3 -3 -39 -2 -79 3 -82 17 -106 63 -103 15 1 39 2 53
2 41 1 45 12 42 102 -3 73 -6 85 -20 83 -14 -2 -17 -15 -18 -65 -1 -47 -6 -68
-21 -82 -17 -17 -20 -18 -41 -3 -19 13 -22 24 -22 83 0 54 -3 68 -15 68 -9 0
-17 -3 -19 -6z"/>
<path d="M1715 1650 c-31 -12 -45 -34 -50 -74 -6 -45 16 -92 47 -102 35 -11
80 -7 89 8 15 23 10 26 -33 21 -48 -7 -68 11 -68 63 0 41 22 59 71 57 27 -1
39 2 39 11 0 23 -56 32 -95 16z"/>
<path d="M1981 1564 c0 -82 2 -94 17 -94 15 0 17 11 17 92 0 78 -3 92 -17 94
-15 2 -17 -9 -17 -92z"/>
<path d="M2097 1644 c-15 -8 -27 -16 -28 -17 0 -1 -3 -23 -6 -48 -6 -57 8 -86
50 -104 65 -27 120 25 111 105 -8 65 -67 95 -127 64z m85 -38 c11 -16 10 -64
-2 -87 -15 -28 -64 -26 -77 4 -13 30 -6 79 14 95 18 13 53 7 65 -12z"/>
<path d="M2270 1565 c0 -78 3 -95 15 -95 16 0 16 1 18 78 2 53 19 82 48 82 27
0 39 -31 39 -99 0 -48 3 -61 15 -61 12 0 15 15 15 71 0 39 -4 79 -10 89 -12
23 -55 33 -81 19 -12 -6 -24 -7 -28 -3 -3 5 -12 10 -18 12 -10 1 -13 -22 -13
-93z"/>
<path d="M2490 1510 c-8 -5 -11 -12 -8 -16 4 -4 3 -16 -3 -26 -14 -25 3 -45
19 -25 15 18 27 77 16 77 -5 0 -16 -4 -24 -10z"/>
<path d="M3259 1515 c-7 -26 3 -44 24 -45 14 0 7 38 -8 44 -8 3 -16 3 -16 1z"/>
</g>
</svg>
